<?xml version="1.0" encoding="iso-8859-1"?>
<!-- Generator: Adobe Illustrator 19.0.0, SVG Export Plug-In . SVG Version: 6.00 Build 0)  -->
<svg width="50px" height="50px" version="1.1" id="Capa_1" xmlns="http://www.w3.org/2000/svg" xmlns:xlink="http://www.w3.org/1999/xlink" x="0px" y="0px"
	 viewBox="0 0 490 490" style="enable-background:new 0 0 490 490;" xml:space="preserve">
<g>
	<path d="M490,117.699H323.318v30.621h136.061v20.441L244.97,300.395L30.621,169.794v-21.473h134.73v-30.621H0v344.534h490V117.699z
		 M459.379,401.775L353.58,269.648l105.799-64.955V401.775z M245,333.648c2.781,0,5.547-0.748,8.014-2.258l74.274-45.6
		l116.765,145.822H46.56l116.382-145.344l74.089,45.137C239.483,332.901,242.234,333.648,245,333.648z M136.583,270.21
		L30.621,402.54V205.654L136.583,270.21z"/>
	<polygon points="260.311,220.119 260.311,107.146 300.304,107.146 245,27.766 189.696,107.146 229.689,107.146 229.689,220.119 	
		"/>
</g>
<g>
</g>
<g>
</g>
<g>
</g>
<g>
</g>
<g>
</g>
<g>
</g>
<g>
</g>
<g>
</g>
<g>
</g>
<g>
</g>
<g>
</g>
<g>
</g>
<g>
</g>
<g>
</g>
<g>
</g>
</svg>
