<?xml version="1.0" standalone="no"?>
<!DOCTYPE svg PUBLIC "-//W3C//DTD SVG 20010904//EN"
 "http://www.w3.org/TR/2001/REC-SVG-20010904/DTD/svg10.dtd">
<svg version="1.0" xmlns="http://www.w3.org/2000/svg"
 width="512.000000pt" height="512.000000pt" viewBox="0 0 512.000000 512.000000"
 preserveAspectRatio="xMidYMid meet">
<metadata>
Created by potrace 1.14, written by Peter Selinger 2001-2017
</metadata>
<g transform="translate(0.000000,512.000000) scale(0.100000,-0.100000)"
fill="#000000" stroke="none">
<path d="M245 4446 c-88 -28 -165 -95 -212 -186 l-28 -55 0 -1645 0 -1645 28
-55 c37 -72 97 -133 166 -167 l56 -28 2305 0 2305 0 56 28 c72 36 128 92 165
164 l29 58 0 1645 0 1645 -29 57 c-37 74 -98 134 -166 167 l-55 26 -2290 2
c-1821 1 -2298 -1 -2330 -11z m3139 -410 c97 -74 92 -211 -10 -276 -100 -63
-223 -17 -254 96 -22 78 19 165 95 200 47 22 127 13 169 -20z m580 0 c47 -36
68 -78 68 -137 -2 -146 -175 -224 -280 -126 -92 86 -70 232 43 284 47 21 127
12 169 -21z m580 0 c47 -36 69 -80 69 -139 -2 -121 -136 -204 -242 -149 -129
65 -127 248 4 308 47 22 127 13 169 -20z m370 -1821 c0 -1203 -1 -1271 -18
-1297 -10 -15 -28 -30 -39 -35 -12 -4 -1041 -7 -2287 -8 -1838 -1 -2270 1
-2292 12 -62 30 -58 -66 -58 1330 l0 1273 2347 -2 2347 -3 0 -1270z"/>
<path d="M621 3001 c-27 -13 -52 -52 -58 -90 -4 -27 25 -79 53 -98 27 -17 91
-18 1479 -19 797 0 1460 2 1472 4 29 5 72 48 79 79 11 43 -5 91 -39 115 l-32
23 -1462 0 c-1242 0 -1466 -2 -1492 -14z"/>
<path d="M637 2315 c-59 -20 -88 -93 -61 -151 31 -65 -16 -62 1006 -62 670 0
933 3 949 12 80 40 81 165 1 198 -36 15 -1851 18 -1895 3z"/>
<path d="M3752 2257 c-12 -7 -28 -22 -36 -32 -7 -11 -39 -130 -70 -265 -31
-135 -66 -281 -76 -325 -78 -325 -88 -376 -79 -409 12 -44 62 -71 111 -62 46
8 72 40 84 101 1 6 23 100 49 210 25 110 48 207 50 215 2 8 27 114 55 235 29
121 53 232 53 247 -1 72 -79 119 -141 85z"/>
<path d="M3244 2118 c-29 -23 -165 -138 -174 -149 -3 -3 -41 -36 -85 -74 -141
-122 -146 -127 -152 -173 -5 -41 -4 -44 48 -95 30 -28 83 -77 119 -108 36 -31
103 -90 150 -131 96 -84 117 -98 155 -98 37 0 62 16 81 52 28 54 13 88 -74
165 -42 37 -82 73 -88 78 -6 6 -41 37 -79 70 l-67 59 45 41 c25 22 93 81 151
130 122 105 143 142 112 200 -31 57 -92 71 -142 33z"/>
<path d="M4046 2119 c-15 -12 -32 -33 -37 -47 -18 -48 5 -84 124 -189 62 -54
126 -110 142 -125 17 -16 33 -28 38 -28 12 0 8 -15 -11 -36 -11 -10 -78 -70
-150 -133 -132 -115 -154 -145 -145 -195 8 -37 57 -76 99 -76 33 0 89 41 239
179 22 20 72 63 110 96 93 79 112 102 117 137 6 39 -17 72 -97 143 -38 33
-123 108 -189 166 -67 58 -131 111 -143 118 -33 17 -67 13 -97 -10z"/>
<path d="M614 1611 c-68 -42 -64 -150 8 -187 42 -22 1106 -21 1148 1 33 17 60
61 60 97 0 33 -36 87 -66 98 -15 6 -241 10 -572 10 -520 0 -549 -1 -578 -19z"/>
</g>
</svg>
